<svg xmlns="http://www.w3.org/2000/svg" width="1600" height="1000" viewBox="0 0 1600 1000" role="img" aria-label="AI Content Strategy project placeholder">
  <defs>
    <linearGradient id="bg" x1="0" y1="0" x2="1" y2="1">
      <stop offset="0%" stop-color="#eef2ff"/>
      <stop offset="50%" stop-color="#ffffff"/>
      <stop offset="100%" stop-color="#dbeafe"/>
    </linearGradient>
  </defs>
  <rect width="1600" height="1000" rx="56" fill="url(#bg)"/>
  <rect x="150" y="150" width="1300" height="700" rx="42" fill="#ffffff" stroke="#cbd5e1" stroke-width="4"/>
  <rect x="230" y="235" width="310" height="420" rx="32" fill="#eff6ff"/>
  <rect x="645" y="235" width="310" height="420" rx="32" fill="#eef2ff"/>
  <rect x="1060" y="235" width="310" height="420" rx="32" fill="#eff6ff"/>
  <rect x="280" y="300" width="210" height="24" rx="12" fill="#2563eb"/>
  <rect x="695" y="300" width="210" height="24" rx="12" fill="#6366f1"/>
  <rect x="1110" y="300" width="210" height="24" rx="12" fill="#2563eb"/>
  <rect x="280" y="375" width="190" height="18" rx="9" fill="#93c5fd"/>
  <rect x="280" y="420" width="160" height="18" rx="9" fill="#bfdbfe"/>
  <rect x="695" y="375" width="190" height="18" rx="9" fill="#a5b4fc"/>
  <rect x="695" y="420" width="160" height="18" rx="9" fill="#c7d2fe"/>
  <rect x="1110" y="375" width="190" height="18" rx="9" fill="#93c5fd"/>
  <rect x="1110" y="420" width="160" height="18" rx="9" fill="#bfdbfe"/>
  <path d="M385 575 H1215" stroke="#1d4ed8" stroke-width="18" stroke-linecap="round"/>
  <circle cx="800" cy="575" r="62" fill="#1d4ed8"/>
  <text x="800" y="595" font-family="Inter, Arial, sans-serif" font-size="48" font-weight="800" fill="#ffffff" text-anchor="middle">AI</text>
  <text x="230" y="760" font-family="Inter, Arial, sans-serif" font-size="62" font-weight="800" fill="#0f172a">AI Content Strategy</text>
  <text x="230" y="818" font-family="Inter, Arial, sans-serif" font-size="32" fill="#475569">Decision system with scoring and recommendation flow</text>
</svg>
